# xmcd
#
# Track frame offsets:
# 150
# 12550
# 25925
# 39682
# 54889
# 69248
# 83997
# 97392
# 112580
# 124572
# 136709
# 152255
# 165097
# 179858
# 193743
# 205925
# 219972
# 234480
# 247855
# 262416
# 277572
# 291030
#
# Disc length: 4087 seconds
#
#
# Revision: 0
# Processed by: cddbd v1.5.2PL0 Copyright (c) Steve Scherf et al.
# Submitted via: FreeRIP 2.96 
#
DISCID=260ff516
DTITLE=Maria Cecília and Rodolfo - AO VIVO em São Paulo
DYEAR=2011
DGENRE=Country
TTITLE0=Os Dias Vão
TTITLE1=Amor Transparente
TTITLE2=Três Palavras
TTITLE3=Sobrenatural
TTITLE4=Só Passando Pelo que Passei
TTITLE5=Mas nem meu coração
TTITLE6=Tchau-Tchau
TTITLE7=Como Eu Quero
TTITLE8=Nunca mais me Solta
TTITLE9=O Troco (Part. exalta)
TTITLE10=Estranho Love
TTITLE11=Eu Quero te Levar
TTITLE12=Tentativas em Vão
TTITLE13=Profecia
TTITLE14=Timidez
TTITLE15=Coração Teimoso
TTITLE16=Presente de Deus
TTITLE17=De Graça
TTITLE18=Essência
TTITLE19=Tenho Tanto Amor
TTITLE20=Pegou Pegou
TTITLE21=Não Vale a Pena te Esquecer
EXTD=
EXTT0=
EXTT1=
EXTT2=
EXTT3=
EXTT4=
EXTT5=
EXTT6=
EXTT7=
EXTT8=
EXTT9=
EXTT10=
EXTT11=
EXTT12=
EXTT13=
EXTT14=
EXTT15=
EXTT16=
EXTT17=
EXTT18=
EXTT19=
EXTT20=
EXTT21=
PLAYORDER=
